<svg width="160" height="160" viewBox="0 0 160 160" fill="none" xmlns="http://www.w3.org/2000/svg">
    <path
        d="M33.9456 17.0661L114.654 17.0361L117.065 28.176L70.7797 104.759L91.3703 102.665L105.979 76.4109L96.5099 76.4893L106.859 59.7875L122.963 59.2906L126.933 73.6271L111.965 100.213L133.909 98.3818L137.386 114.205L50.1434 123.978L47.1177 105.217L64.4207 77.5146L42.8325 78.4474L40.334 60.8785L58.3849 29.9803L36.2129 30.2735L33.9456 17.0661Z"
        fill="#FF0000" />
    <path d="M79.0824 29.7324L93.9643 29.9019L76.4258 58.4677L60.8124 58.6053L79.0824 29.7324Z"
        fill="#FF0000" />
    <path
        d="M29.8833 151.1C29.5684 150.679 28.6494 145.234 27.8408 139.001L26.3709 127.667L31.1502 118.339C33.7788 113.209 35.8265 108.903 35.7006 108.773C35.5747 108.641 32.9746 108.779 29.9226 109.078C26.8707 109.377 24.2029 109.449 23.9937 109.238C23.7847 109.027 22.9344 104.184 22.1041 98.4751L20.5946 88.0956L24.3149 78.7836C26.3611 73.662 28.1903 69.0509 28.3798 68.5362C28.684 67.7106 28.0768 67.6218 23.2025 67.7793L17.6806 67.9577L15.0236 45.8387L21.602 27.8228C27.0146 12.9997 28.4407 8.74827 29.4128 8.50406C30.0626 8.34074 51.3182 8.45657 74.8184 8.45534L121.553 8.36816L124.888 26.2678C124.888 26.2678 112.783 47.2943 112.542 47.5724C115.654 47.3646 118.127 47.2985 123.675 47.0064C125.82 46.8934 129.082 47.0249 129.229 47.2722C129.428 47.6081 130.722 54.4051 132.815 60.7341C132.815 60.7341 134.309 67.8208 135.399 72.4333C131.495 79.9681 126.403 88.3127 127.107 88.6503C127.613 88.912 129.724 88.4542 132.351 88.284C135.833 88.0585 137.982 87.7799 139.453 88.2873C141.054 90.2137 144.976 111.607 144.976 114.337C144.976 116.602 143.565 117.104 129.686 128.437L115.804 139.773L106.549 141.08C101.458 141.799 83.1583 144.372 65.8821 146.799C48.6058 149.225 33.5676 151.358 32.4632 151.537C31.1487 151.752 30.2582 151.6 29.8833 151.1Z"
        fill="black" />
    <path
        d="M34.7521 13.6499L117.196 13.9818L118.951 24.7247L73.6888 99.6406L92.972 97.9984L108.645 69.4301L95.937 70.0239L108.044 53.0455L126.744 52.2774L130.8 68.6166L117.277 95.9866L134.891 94.1015L138.442 110.391L52.358 120.453L49.2673 101.139L66.9423 72.6188L44.8899 73.5791L41.8012 54.5852L59.3624 29.4872L36.7137 29.789L34.7521 13.6499Z"
        fill="white" />
    <path d="M80.4163 29.1787L91.0961 29.2532L77.2578 53.1722L63.9797 53.1467L80.4163 29.1787Z"
        fill="black" />
</svg>